<svg width="56" height="56" viewBox="0 0 56 56" fill="none" xmlns="http://www.w3.org/2000/svg">
<path d="M4 28C4 14.7452 14.7452 4 28 4C41.2548 4 52 14.7452 52 28C52 41.2548 41.2548 52 28 52C14.7452 52 4 41.2548 4 28Z" fill="#E5F0FF"/>
<path d="M37 27.5C37.0034 28.8199 36.6951 30.1219 36.1 31.3C35.3944 32.7118 34.3098 33.8992 32.9674 34.7293C31.6251 35.5594 30.0782 35.9994 28.5 36C27.1801 36.0035 25.8781 35.6951 24.7 35.1L19 37L20.9 31.3C20.3049 30.1219 19.9966 28.8199 20 27.5C20.0006 25.9218 20.4406 24.3749 21.2707 23.0326C22.1008 21.6903 23.2883 20.6056 24.7 19.9C25.8781 19.305 27.1801 18.9966 28.5 19H29C31.0843 19.115 33.053 19.9948 34.5291 21.4709C36.0052 22.947 36.885 24.9157 37 27V27.5Z" stroke="#0066FF" stroke-width="2" stroke-linecap="round" stroke-linejoin="round"/>
<path d="M28 48C16.9543 48 8 39.0457 8 28H0C0 43.464 12.536 56 28 56V48ZM48 28C48 39.0457 39.0457 48 28 48V56C43.464 56 56 43.464 56 28H48ZM28 8C39.0457 8 48 16.9543 48 28H56C56 12.536 43.464 0 28 0V8ZM28 0C12.536 0 0 12.536 0 28H8C8 16.9543 16.9543 8 28 8V0Z" fill="#F2F7FF"/>
</svg>
