<svg width="47" height="46" viewBox="0 0 47 46" fill="none" xmlns="http://www.w3.org/2000/svg">
    <path d="M3.5 23C3.5 11.9543 12.4543 3 23.5 3V3C34.5457 3 43.5 11.9543 43.5 23V23C43.5 34.0457 34.5457 43 23.5 43V43C12.4543 43 3.5 34.0457 3.5 23V23Z" fill="#E5F0FF" />
    <path d="M24.3333 14.6665L16 24.6665H23.5L22.6667 31.3332L31 21.3332H23.5L24.3333 14.6665Z" stroke="#0066FF" stroke-width="1.66667" stroke-linecap="round" stroke-linejoin="round" />
    <path d="M23.5 40C14.1112 40 6.5 32.3888 6.5 23H0.5C0.5 35.7025 10.7975 46 23.5 46V40ZM40.5 23C40.5 32.3888 32.8888 40 23.5 40V46C36.2025 46 46.5 35.7025 46.5 23H40.5ZM23.5 6C32.8888 6 40.5 13.6112 40.5 23H46.5C46.5 10.2975 36.2025 0 23.5 0V6ZM23.5 0C10.7975 0 0.5 10.2975 0.5 23H6.5C6.5 13.6112 14.1112 6 23.5 6V0Z" fill="#F2F7FF" />
  </svg>