<svg width="56" height="56" viewBox="0 0 56 56" fill="none" xmlns="http://www.w3.org/2000/svg">
<path d="M4 28C4 14.7452 14.7452 4 28 4C41.2548 4 52 14.7452 52 28C52 41.2548 41.2548 52 28 52C14.7452 52 4 41.2548 4 28Z" class="icon__inner" />
<path d="M34 19C33.2044 19 32.4413 19.3161 31.8787 19.8787C31.3161 20.4413 31 21.2044 31 22V34C31 34.7956 31.3161 35.5587 31.8787 36.1213C32.4413 36.6839 33.2044 37 34 37C34.7956 37 35.5587 36.6839 36.1213 36.1213C36.6839 35.5587 37 34.7956 37 34C37 33.2044 36.6839 32.4413 36.1213 31.8787C35.5587 31.3161 34.7956 31 34 31H22C21.2044 31 20.4413 31.3161 19.8787 31.8787C19.3161 32.4413 19 33.2044 19 34C19 34.7956 19.3161 35.5587 19.8787 36.1213C20.4413 36.6839 21.2044 37 22 37C22.7956 37 23.5587 36.6839 24.1213 36.1213C24.6839 35.5587 25 34.7956 25 34V22C25 21.2044 24.6839 20.4413 24.1213 19.8787C23.5587 19.3161 22.7956 19 22 19C21.2044 19 20.4413 19.3161 19.8787 19.8787C19.3161 20.4413 19 21.2044 19 22C19 22.7956 19.3161 23.5587 19.8787 24.1213C20.4413 24.6839 21.2044 25 22 25H34C34.7956 25 35.5587 24.6839 36.1213 24.1213C36.6839 23.5587 37 22.7956 37 22C37 21.2044 36.6839 20.4413 36.1213 19.8787C35.5587 19.3161 34.7956 19 34 19Z" stroke-width="2" stroke-linecap="round" stroke-linejoin="round" class="icon__glyph" />
<path d="M28 48C16.9543 48 8 39.0457 8 28H0C0 43.464 12.536 56 28 56V48ZM48 28C48 39.0457 39.0457 48 28 48V56C43.464 56 56 43.464 56 28H48ZM28 8C39.0457 8 48 16.9543 48 28H56C56 12.536 43.464 0 28 0V8ZM28 0C12.536 0 0 12.536 0 28H8C8 16.9543 16.9543 8 28 8V0Z" class="icon__outer" />
</svg>
