<svg
      width="70"
      height="58"
      viewBox="0 0 70 58"
      fill="none"
      xmlns="http://www.w3.org/2000/svg"
    >
      <path
        d="M38.5157 9.90049C25.6314 17.6813 18.4778 31.9114 14.1784 45.8284C13.9574 46.5436 13.6872 47.2614 13.4403 47.96C12.7499 46.5672 8.03907 34.9993 6.13718 35.7065C5.02566 36.1199 5.66148 37.6054 5.90609 38.2047C7.67665 42.5368 9.40635 46.4204 11.5219 50.6097C13.1142 53.7634 16.0772 52.9413 19.0123 51.9815C23.4933 50.516 23.857 50.0959 28.4465 48.4092C29.2029 48.1311 29.9978 47.9062 30.6989 47.5588C31.5232 47.1497 32.407 46.284 31.9694 45.3405C31.4734 44.2711 30.3944 44.3466 29.4727 44.7392C29.2802 44.8217 29.0848 44.8972 28.8876 44.9681C26.7214 45.7458 16.8894 49.8946 16.5619 49.1932C16.4514 48.957 16.4887 48.6822 16.5305 48.425C17.7341 41.0028 20.9213 33.9326 24.6865 27.4726C27.2198 23.1255 30.4712 19.1989 34.26 15.8869C37.3046 13.2253 40.737 10.9655 44.4762 9.40579C48.4856 7.733 52.3659 7.38833 56.6492 7.1339C59.115 6.98768 57.162 4.63842 55.79 4.37381C54.2822 4.08254 52.6679 4.6056 51.2031 4.91054C46.5691 5.87763 42.3374 7.59276 38.5157 9.90049Z"
        fill="#0052CD"
      />
    </svg>